<svg width="27" height="27" viewBox="0 0 27 27" fill="none" xmlns="http://www.w3.org/2000/svg">
<path d="M26.9219 13.49C23.2321 13.4452 20.2526 10.4478 20.2526 6.74751C16.5523 6.74751 13.5554 3.76861 13.5101 0.0793802C12.0725 -0.138936 10.6028 0.0952002 9.30609 0.755422L5.66058 2.61269C4.34824 3.28147 3.28141 4.34866 2.61307 5.66121L0.762106 9.29348C0.091779 10.6094 -0.144872 12.1036 0.0860547 13.5622L0.723083 17.5842C0.95378 19.0414 1.63973 20.3882 2.68268 21.4316L5.57093 24.3193C6.61059 25.3593 7.95282 26.0434 9.40523 26.2736L13.4505 26.9143C14.9012 27.1443 16.3878 26.9085 17.6971 26.2415L21.3426 24.3847C22.6549 23.7158 23.7217 22.6486 24.3902 21.3362L26.2411 17.7039C26.9035 16.4046 27.1381 14.9312 26.9219 13.49ZM9.2813 19.4056C8.34949 19.4056 7.59381 18.65 7.59381 17.7182C7.59381 16.7864 8.34949 16.0307 9.2813 16.0307C10.2131 16.0307 10.9688 16.7864 10.9688 17.7182C10.9688 18.65 10.2131 19.4056 9.2813 19.4056ZM10.9688 10.9683C10.037 10.9683 9.2813 10.2126 9.2813 9.28082C9.2813 8.34903 10.037 7.59336 10.9688 7.59336C11.9006 7.59336 12.6563 8.34903 12.6563 9.28082C12.6563 10.2126 11.9006 10.9683 10.9688 10.9683ZM19.4063 17.7182C18.4744 17.7182 17.7188 16.9625 17.7188 16.0307C17.7188 15.0989 18.4744 14.3432 19.4063 14.3432C20.3381 14.3432 21.0937 15.0989 21.0937 16.0307C21.0937 16.9625 20.3381 17.7182 19.4063 17.7182Z" fill="#B10707"/>
</svg>
